<?xml version="1.0" encoding="UTF-8" standalone="no"?>
<!-- Created with Inkscape (http://www.inkscape.org/) -->

<svg
   xmlns:osb="http://www.openswatchbook.org/uri/2009/osb"
   xmlns:dc="http://purl.org/dc/elements/1.1/"
   xmlns:cc="http://creativecommons.org/ns#"
   xmlns:rdf="http://www.w3.org/1999/02/22-rdf-syntax-ns#"
   xmlns:svg="http://www.w3.org/2000/svg"
   xmlns="http://www.w3.org/2000/svg"
   xmlns:sodipodi="http://sodipodi.sourceforge.net/DTD/sodipodi-0.dtd"
   xmlns:inkscape="http://www.inkscape.org/namespaces/inkscape"
   width="1080"
   height="409.3526"
   id="svg3062"
   version="1.1"
   inkscape:version="0.48.4 r9939"
   sodipodi:docname="v1.2_alt.svg">
  <sodipodi:namedview
     id="base"
     pagecolor="#ffffff"
     bordercolor="#666666"
     borderopacity="1.0"
     inkscape:pageopacity="0.0"
     inkscape:pageshadow="2"
     inkscape:zoom="0.74814815"
     inkscape:cx="531.53522"
     inkscape:cy="185.58854"
     inkscape:document-units="px"
     inkscape:current-layer="layer1"
     showgrid="false"
     fit-margin-top="0"
     fit-margin-left="0"
     fit-margin-right="0"
     fit-margin-bottom="0"
     inkscape:window-width="1920"
     inkscape:window-height="1014"
     inkscape:window-x="0"
     inkscape:window-y="30"
     inkscape:window-maximized="1"
     inkscape:snap-bbox="true"
     inkscape:snap-bbox-edge-midpoints="true"
     inkscape:snap-bbox-midpoints="true"
     inkscape:bbox-nodes="true"
     inkscape:bbox-paths="true"
     showguides="true"
     inkscape:guide-bbox="true">
    <sodipodi:guide
       id="guide3790"
       position="539.99999,204.67624"
       orientation="1,0" />
    <sodipodi:guide
       id="guide3792"
       position="90.094614,204.6763"
       orientation="0,1" />
    <sodipodi:guide
       id="guide5365"
       position="305.35961,195.40201"
       orientation="1,0" />
    <sodipodi:guide
       id="guide5367"
       position="773.59698,213.95059"
       orientation="1,0" />
  </sodipodi:namedview>
  <defs
     id="defs3064">
    <linearGradient
       osb:paint="solid"
       id="linearGradient5250">
      <stop
         id="stop5252"
         offset="0"
         style="stop-color:#00b0ff;stop-opacity:1;" />
    </linearGradient>
  </defs>
  <metadata
     id="metadata3067">
    <rdf:RDF>
      <cc:Work
         rdf:about="">
        <dc:format>image/svg+xml</dc:format>
        <dc:type
           rdf:resource="http://purl.org/dc/dcmitype/StillImage" />
        <dc:title></dc:title>
      </cc:Work>
    </rdf:RDF>
  </metadata>
  <g
     transform="translate(-31.885918,-241.68725)"
     id="layer1"
     inkscape:groupmode="layer"
     inkscape:label="Layer 1">
    <path
       style="font-size:medium;font-style:normal;font-variant:normal;font-weight:normal;font-stretch:normal;text-indent:0;text-align:start;text-decoration:none;line-height:normal;letter-spacing:normal;word-spacing:normal;text-transform:none;direction:ltr;block-progression:tb;writing-mode:lr-tb;text-anchor:start;baseline-shift:baseline;color:#000000;fill:#00b0ff;fill-opacity:1;stroke:none;stroke-width:70;marker:none;visibility:visible;display:inline;overflow:visible;enable-background:accumulate;font-family:Sans;-inkscape-font-specification:Sans"
       d="m 431.8125,486.53125 -3.6875,2.9375 -0.3125,0.21875 -3.375,2.625 -0.34375,0.25 -3.34375,2.5 -0.34375,0.25 -3.28125,2.40625 -0.40625,0.28125 -3.21875,2.28125 -0.34375,0.25 -0.0625,0.0312 -3.1875,2.1875 -0.4375,0.3125 -3.59375,2.375 -3.0625,2 -0.40625,0.25 -0.0937,0.0625 -3,1.875 -0.53125,0.3125 -2.9375,1.75 -0.5625,0.34375 -2.90625,1.65625 -0.375,0.21875 -0.1875,0.0937 -2.84375,1.5625 -0.4375,0.21875 -0.15625,0.0937 -2.78125,1.4375 -0.65625,0.34375 -3.375,1.65625 -2.625,1.25 -0.71875,0.3125 -2.5625,1.15625 -0.59375,0.25 -0.15625,0.0625 -2.5,1.03125 -0.375,0.15625 -0.40625,0.15625 -2.4375,0.9375 -0.125,0.0312 -0.6875,0.28125 -2.34375,0.84375 -3.15625,1.0625 -0.34375,0.0937 -0.53125,0.1875 -2.25,0.65625 -3.0625,0.875 -0.34375,0.0937 -2.71875,0.65625 -0.4375,0.0937 -0.53125,0.125 -3.0625,0.625 -34.21875,7.3125 14.5625,68.46875 34.25,-7.3125 4,-0.84375 0.96875,-0.21875 4.03125,-0.96875 0.9375,-0.25 4.03125,-1.09375 0.90625,-0.28125 4.03125,-1.1875 0.875,-0.28125 L 388,592.25 l 0.84375,-0.28125 4.03125,-1.4375 0.8125,-0.3125 4,-1.5625 0.78125,-0.3125 4.03125,-1.6875 0.75,-0.3125 4.03125,-1.78125 L 408,584.25 l 4,-1.90625 0.6875,-0.3125 4.03125,-2 0.65625,-0.34375 4,-2.09375 0.625,-0.3125 4.03125,-2.21875 0.5625,-0.3125 4.03125,-2.3125 0.5625,-0.3125 4,-2.40625 0.53125,-0.3125 4.03125,-2.5 0.46875,-0.3125 L 444.25,564 444.71875,563.6875 448.75,561 l 0.4375,-0.28125 4,-2.78125 0.4375,-0.28125 4,-2.875 0.40625,-0.25 4,-2.9375 0.375,-0.28125 4.03125,-3 0.3125,-0.28125 4.03125,-3.09375 0.3125,-0.21875 4.03125,-3.1875 27.5,-21.65625 -43.3125,-55 z"
       id="path5260"
       inkscape:connector-curvature="0" />
    <path
       style="font-size:medium;font-style:normal;font-variant:normal;font-weight:normal;font-stretch:normal;text-indent:0;text-align:start;text-decoration:none;line-height:normal;letter-spacing:normal;word-spacing:normal;text-transform:none;direction:ltr;block-progression:tb;writing-mode:lr-tb;text-anchor:start;baseline-shift:baseline;color:#000000;fill:#00b0ff;fill-opacity:1;stroke:none;stroke-width:70;marker:none;visibility:visible;display:inline;overflow:visible;enable-background:accumulate;font-family:Sans;-inkscape-font-specification:Sans"
       d="m 776.1875,294 -4.03125,0.84375 -0.96875,0.21875 -4.03125,1 -0.9375,0.21875 -4,1.09375 -0.9375,0.28125 -4,1.21875 -0.875,0.28125 -4.03125,1.3125 -0.84375,0.28125 -4.03125,1.46875 -0.8125,0.28125 -4.03125,1.5625 -0.78125,0.3125 -4.03125,1.6875 -0.75,0.3125 -4,1.78125 -0.71875,0.3125 -4.03125,1.90625 -0.6875,0.3125 -4,2 -0.65625,0.34375 -4.03125,2.09375 -0.59375,0.34375 -4.03125,2.1875 L 713.75,318 l -4.03125,2.28125 -0.53125,0.34375 -4.03125,2.40625 -0.53125,0.3125 -4,2.5 -0.5,0.3125 -4.03125,2.59375 -0.46875,0.28125 -4,2.6875 -0.4375,0.3125 -4.03125,2.75 -0.40625,0.28125 -4.03125,2.875 -0.375,0.28125 -4.03125,2.9375 -0.34375,0.25 -4.03125,3.03125 -0.34375,0.25 -4.03125,3.09375 -0.3125,0.25 -4,3.15625 -27.5,21.65625 43.28125,55 27.5,-21.65625 3.71875,-2.90625 0.3125,-0.25 3.375,-2.59375 0.34375,-0.25 3.3125,-2.5 0.0312,-0.0312 0.34375,-0.25 L 723.25,395 l 0.375,-0.25 3.25,-2.3125 0.40625,-0.28125 3.15625,-2.1875 0.4375,-0.3125 3.125,-2.0625 0.46875,-0.3125 3.09375,-1.96875 0.46875,-0.3125 3.03125,-1.875 0.5,-0.3125 2.96875,-1.78125 0.5625,-0.3125 2.875,-1.65625 0.59375,-0.34375 2.8125,-1.53125 0.625,-0.34375 2.75,-1.4375 0.0625,-0.0312 0.59375,-0.3125 2.71875,-1.34375 0.46875,-0.21875 0.1875,-0.0937 2.65625,-1.25 0.40625,-0.1875 0.28125,-0.125 2.5625,-1.15625 0.625,-0.25 0.125,-0.0625 2.5,-1.03125 0.375,-0.15625 0.40625,-0.15625 2.4375,-0.9375 0.0937,-0.0312 3.09375,-1.125 0.84375,-0.28125 2.28125,-0.78125 0.375,-0.125 0.5,-0.15625 2.25,-0.65625 4.03125,-1.09375 2.125,-0.53125 0.25,-0.0625 3.75,-0.78125 34.25,-7.28125 -14.59375,-68.46875 z"
       id="path3919"
       inkscape:connector-curvature="0" />
    <path
       style="font-size:medium;font-style:normal;font-variant:normal;font-weight:normal;font-stretch:normal;text-indent:0;text-align:start;text-decoration:none;line-height:normal;letter-spacing:normal;word-spacing:normal;text-transform:none;direction:ltr;block-progression:tb;writing-mode:lr-tb;text-anchor:start;baseline-shift:baseline;color:#000000;fill:#00b0ff;fill-opacity:1;stroke:none;stroke-width:127.85232544;marker:none;visibility:visible;display:inline;overflow:visible;enable-background:accumulate;font-family:Sans;-inkscape-font-specification:Sans"
       d="m 912.5,241.03125 a 63.932555,63.932555 0 0 0 -46.53125,108.9375 l 90.09375,93.46875 c -2.67403,2.34774 -5.3555,4.69427 -8,6.96875 -3.00421,2.5839 -5.9747,5.1154 -8.9375,7.59375 -2.96436,2.47973 -5.92398,4.9175 -8.84375,7.28125 -2.92167,2.36528 -5.81413,4.66683 -8.6875,6.90625 -2.87523,2.24086 -5.70815,4.42515 -8.53125,6.53125 -2.82549,2.10792 -5.63784,4.12903 -8.40625,6.09375 -2.77132,1.96676 -5.50899,3.87065 -8.21875,5.6875 -2.71303,1.81905 -5.38531,3.55558 -8.03125,5.21875 -2.64966,1.66556 -5.26518,3.24372 -7.84375,4.75 -2.58248,1.50858 -5.14962,2.93427 -7.65625,4.28125 -2.5112,1.34946 -4.97468,2.62487 -7.40625,3.8125 -2.43653,1.19006 -4.8326,2.31344 -7.1875,3.34375 -2.36023,1.03261 -4.69146,1.96736 -6.96875,2.84375 -2.28251,0.8784 -4.51655,1.67817 -6.71875,2.40625 -2.20727,0.72976 -4.36879,1.41379 -6.5,2 -2.13692,0.58778 -4.24457,1.07962 -6.3125,1.53125 -2.07461,0.45308 -4.10995,0.86339 -6.125,1.1875 -2.02239,0.3253 -4.02319,0.57833 -6,0.78125 -1.98402,0.20369 -3.9514,0.35138 -5.90625,0.4375 -1.96205,0.0864 -3.92385,0.12247 -5.875,0.0937 -1.95732,-0.0288 -3.91069,-0.13698 -5.875,-0.28125 -1.97093,-0.14477 -3.94301,-0.33073 -5.9375,-0.59375 -2.00176,-0.26399 -4.02313,-0.58171 -6.0625,-0.96875 -2.0468,-0.38842 -4.12095,-0.85703 -6.21875,-1.375 -2.10451,-0.51961 -4.24045,-1.09368 -6.40625,-1.75 -2.17168,-0.65812 -4.38556,-1.38588 -6.625,-2.1875 -2.24473,-0.80352 -4.52732,-1.70321 -6.84375,-2.65625 -2.32153,-0.95517 -4.66889,-1.98492 -7.0625,-3.09375 -2.39843,-1.11109 -4.84252,-2.2949 -7.3125,-3.5625 -2.47382,-1.26957 -4.95642,-2.60407 -7.5,-4.03125 -2.54725,-1.42925 -5.137,-2.94588 -7.75,-4.53125 -2.61676,-1.58765 -5.25887,-3.25915 -7.9375,-5 -2.68144,-1.74266 -5.41638,-3.54569 -8.15625,-5.4375 -2.74259,-1.89369 -5.51649,-3.87 -8.3125,-5.90625 -2.79899,-2.03839 -5.6206,-4.139 -8.46875,-6.3125 -2.85059,-2.17531 -5.72797,-4.4159 -8.625,-6.71875 -2.89924,-2.30463 -5.80859,-4.67154 -8.75,-7.09375 -2.94328,-2.42371 -5.92282,-4.90533 -8.90625,-7.4375 -2.98468,-2.53323 -5.97759,-5.11872 -9,-7.75 -3.02335,-2.63211 -6.06599,-5.31199 -9.125,-8.03125 -3.05986,-2.72002 -6.1251,-5.48552 -9.21875,-8.28125 -3.09436,-2.79638 -6.21652,-5.63917 -9.34375,-8.5 -3.1279,-2.8615 -6.27856,-5.74286 -9.4375,-8.65625 -3.15977,-2.91414 -6.34044,-5.85783 -9.53125,-8.8125 -3.19116,-2.95499 -6.37129,-5.92228 -9.59375,-8.90625 -3.22231,-2.9838 -6.46442,-5.96742 -9.71875,-8.96875 -3.2539,-3.00093 -6.52583,-6.02457 -9.8125,-9.03125 -3.28616,-3.00622 -6.5866,-6.00004 -9.90625,-9 -3.31895,-2.99927 -6.67635,-5.98653 -10.03125,-8.96875 -3.35369,-2.98114 -6.70253,-5.95394 -10.09375,-8.90625 -3.38986,-2.95109 -6.81958,-5.90105 -10.25,-8.8125 -3.42883,-2.91014 -6.87168,-5.7972 -10.34375,-8.65625 -3.47035,-2.85769 -6.95218,-5.67355 -10.46875,-8.46875 -3.51497,-2.79397 -7.06025,-5.56104 -10.625,-8.28125 -3.56278,-2.7187 -7.16378,-5.39695 -10.78125,-8.03125 -3.61521,-2.63273 -7.23265,-5.21361 -10.90625,-7.75 -3.67107,-2.53463 -7.39002,-5.01027 -11.125,-7.4375 -3.73148,-2.42492 -7.48067,-4.81927 -11.28125,-7.125 -3.79671,-2.30336 -7.62968,-4.51605 -11.5,-6.6875 -3.86615,-2.16908 -7.77453,-4.28852 -11.71875,-6.3125 -3.93921,-2.02144 -7.91688,-3.95017 -11.9375,-5.8125 -4.01513,-1.85982 -8.08949,-3.65792 -12.1875,-5.34375 -4.09201,-1.68336 -8.20018,-3.25583 -12.375,-4.75 -4.16839,-1.49187 -8.37647,-2.90027 -12.625,-4.1875 -4.24175,-1.28518 -8.52804,-2.46593 -12.84375,-3.53125 -4.30866,-1.06356 -8.65738,-2.01396 -13.03125,-2.84375 -4.36689,-0.82848 -8.76829,-1.54245 -13.1875,-2.125 -4.41227,-0.58164 -8.83117,-1.01717 -13.28125,-1.34375 -4.44276,-0.32604 -8.91288,-0.52821 -13.375,-0.59375 -4.45538,-0.0653 -8.91584,-0.009 -13.375,0.1875 -4.45158,0.19634 -8.87556,0.54423 -13.3125,1 -4.42936,0.45495 -8.85158,1.01101 -13.25,1.71875 -4.39132,0.70658 -8.77907,1.55064 -13.125,2.5 -4.33921,0.9479 -8.65478,2.00928 -12.9375,3.1875 -4.276,1.1764 -8.5068,2.48226 -12.71875,3.875 -4.20594,1.39076 -8.39492,2.87671 -12.53125,4.46875 -4.13073,1.58989 -8.22258,3.25534 -12.28125,5.03125 -4.05374,1.77377 -8.04933,3.64866 -12.03125,5.59375 -3.97723,1.94277 -7.9371,3.96299 -11.84375,6.0625 -3.90275,2.09741 -7.75906,4.25979 -11.59375,6.5 -3.83136,2.23828 -7.63902,4.56929 -11.40625,6.9375 -3.7639,2.36608 -7.48329,4.79745 -11.1875,7.28125 -3.70126,2.48177 -7.38638,5.00691 -11.03125,7.59375 -3.64259,2.58523 -7.25313,5.2274 -10.84375,7.90625 -3.58849,2.67722 -7.14715,5.3969 -10.6875,8.15625 -3.5386,2.75797 -7.03782,5.54676 -10.53125,8.375 -3.49187,2.82704 -6.98694,5.67601 -10.4375,8.5625 -3.44897,2.88521 -6.87091,5.81678 -10.28125,8.75 -3.40934,2.93238 -6.78354,5.87505 -10.15625,8.84375 -3.37175,2.96783 -6.725222,5.94471 -10.0625,8.9375 -3.336474,2.99202 -6.665467,5.99492 -9.96875,9 -3.302398,3.00426 -6.604533,6.02569 -9.875,9.03125 -3.26988,3.00505 -6.511594,6.00581 -9.75,9 -3.23815,2.99399 -8.207072,7.20307 -14.75,15.125 A 63.932555,63.932555 0 0 0 50,491.28125 l 136.1875,139.875 a 63.932555,63.932555 0 1 0 91.59375,-89.1875 l -90.375,-92.84375 c 2.36806,-2.07464 4.71695,-4.17009 7.0625,-6.1875 3.00332,-2.58314 5.97289,-5.11372 8.9375,-7.59375 2.96308,-2.47869 5.92204,-4.88458 8.84375,-7.25 2.92023,-2.36418 5.8125,-4.66548 8.6875,-6.90625 2.87333,-2.23947 5.73731,-4.42349 8.5625,-6.53125 2.82298,-2.10613 5.60393,-4.15831 8.375,-6.125 2.76877,-1.96506 5.50631,-3.8375 8.21875,-5.65625 2.70941,-1.81676 5.41272,-3.58428 8.0625,-5.25 2.64639,-1.66361 5.26147,-3.24144 7.84375,-4.75 2.57895,-1.50661 5.11411,-2.93186 7.625,-4.28125 2.50699,-1.34731 4.9698,-2.62235 7.40625,-3.8125 2.43168,-1.18783 4.8276,-2.27989 7.1875,-3.3125 2.35495,-1.03043 4.6859,-1.99635 6.96875,-2.875 2.27733,-0.87652 4.51109,-1.67625 6.71875,-2.40625 2.20169,-0.72802 4.39363,-1.38065 6.53125,-1.96875 2.13094,-0.58624 4.20688,-1.10936 6.28125,-1.5625 2.06775,-0.4517 4.13393,-0.83085 6.15625,-1.15625 2.01524,-0.32426 4.0157,-0.60869 6,-0.8125 1.97668,-0.20305 3.94423,-0.31971 5.90625,-0.40625 1.95446,-0.0862 3.88545,-0.12246 5.84375,-0.0937 1.95146,0.0287 3.90414,0.10536 5.875,0.25 1.96352,0.1441 3.9674,0.36118 5.96875,0.625 1.99447,0.26291 4.01575,0.58045 6.0625,0.96875 2.03977,0.38697 4.08254,0.82415 6.1875,1.34375 2.09789,0.51786 4.23434,1.12319 6.40625,1.78125 2.16511,0.65599 4.37973,1.38391 6.625,2.1875 2.2388,0.80127 4.52212,1.66994 6.84375,2.625 2.31571,0.95263 4.66403,1.98277 7.0625,3.09375 2.39304,1.10845 4.83809,2.29274 7.3125,3.5625 2.46948,1.26722 4.98374,2.63324 7.53125,4.0625 2.54328,1.42691 5.13309,2.9124 7.75,4.5 2.61306,1.58529 5.2553,3.25696 7.9375,5 2.67866,1.74077 5.38243,3.57518 8.125,5.46875 2.73998,1.89179 5.51413,3.83713 8.3125,5.875 2.79617,2.03622 5.61791,4.16833 8.46875,6.34375 2.84891,2.17397 5.72637,4.4147 8.625,6.71875 2.89705,2.30276 5.80677,4.67012 8.75,7.09375 2.94169,2.42231 5.92148,4.90426 8.90625,7.4375 2.98324,2.53193 5.97618,5.11757 9,7.75 3.02242,2.63125 6.06505,5.31121 9.125,8.03125 3.05876,2.71898 6.15533,5.45341 9.25,8.25 3.09397,2.796 6.185,5.63892 9.3125,8.5 3.12697,2.86058 6.27778,5.74218 9.4375,8.65625 3.15931,2.91369 6.33992,5.85738 9.53125,8.8125 3.19116,2.95499 6.40254,5.92228 9.625,8.90625 3.22281,2.98431 6.4649,5.99908 9.71875,9 3.25468,3.00169 6.52678,5.99412 9.8125,9 3.28645,3.00649 6.58699,6.00038 9.90625,9 3.32001,3.00029 6.64622,6.0187 10,9 3.35463,2.98204 6.73469,5.95468 10.125,8.90625 3.39121,2.95236 6.78973,5.8709 10.21875,8.78125 3.43015,2.91133 6.87333,5.79844 10.34375,8.65625 3.47215,2.85927 6.98566,5.67518 10.5,8.46875 3.51661,2.79535 7.03064,5.56222 10.59375,8.28125 3.56543,2.72088 7.1666,5.39884 10.78125,8.03125 3.61755,2.63455 7.26647,5.21525 10.9375,7.75 3.67379,2.53665 7.36149,5.04317 11.09375,7.46875 3.73503,2.42741 7.51566,4.79012 11.3125,7.09375 3.80062,2.30593 7.63365,4.54936 11.5,6.71875 3.87004,2.17144 7.74764,4.2593 11.6875,6.28125 3.94368,2.0239 7.92231,3.98368 11.9375,5.84375 4.02003,1.86227 8.09541,3.62885 12.1875,5.3125 4.09725,1.68572 8.23736,3.28895 12.40625,4.78125 4.17422,1.49418 8.38304,2.87075 12.625,4.15625 4.24784,1.28724 8.50335,2.46732 12.8125,3.53125 4.31582,1.06561 8.66449,2.01507 13.03125,2.84375 4.37429,0.83016 8.77554,1.54317 13.1875,2.125 4.41913,0.58278 8.83858,1.04869 13.28125,1.375 4.44931,0.32677 8.91872,0.49688 13.375,0.5625 4.46255,0.0657 8.92339,0.009 13.375,-0.1875 4.45879,-0.19642 8.91415,-0.514 13.34375,-0.96875 4.43685,-0.45546 8.85873,-1.04366 13.25,-1.75 4.39863,-0.70749 8.75468,-1.55238 13.09375,-2.5 4.34569,-0.94907 8.66076,-2.01114 12.9375,-3.1875 4.28241,-1.17791 8.51242,-2.45307 12.71875,-3.84375 4.21142,-1.39236 8.4001,-2.87893 12.53125,-4.46875 4.13629,-1.59181 8.22778,-3.28909 12.28125,-5.0625 4.0587,-1.77575 8.08547,-3.65127 12.0625,-5.59375 3.98209,-1.94493 7.91008,-3.96544 11.8125,-6.0625 3.90703,-2.0995 7.76265,-4.26204 11.59375,-6.5 3.83507,-2.24026 7.64231,-4.54027 11.40625,-6.90625 3.76774,-2.36831 7.48687,-4.80004 11.1875,-7.28125 3.7039,-2.48341 7.38891,-5.00885 11.03125,-7.59375 3.64525,-2.587 7.25562,-5.22937 10.84375,-7.90625 3.59054,-2.67864 7.14907,-5.39851 10.6875,-8.15625 3.5402,-2.75916 7.0705,-5.548 10.5625,-8.375 3.4938,-2.82849 6.957,-5.70842 10.4062,-8.59375 3.4511,-2.88673 6.8719,-5.78639 10.2813,-8.71875 3.41,-2.93292 6.8154,-5.8756 10.1875,-8.84375 3.3724,-2.96843 6.7266,-5.97735 10.0625,-8.96875 3.3312,-2.98731 6.6402,-6.00038 9.9375,-9 0.01,-0.005 0.025,0.005 0.031,0 3.2989,-3.00091 6.5803,-6.00097 9.8438,-9 3.2691,-3.00443 6.5113,-6.00552 9.75,-9 3.2384,-2.99416 5.2558,-4.81273 6.8438,-6.09375 A 63.932555,63.932555 0 0 0 1094,402.3125 L 958,261.25 a 63.932555,63.932555 0 0 0 -45.5,-20.21875 z"
       id="path3946"
       inkscape:connector-curvature="0" />
    <path
       transform="matrix(1.704181,0,0,1.704181,-45.410064,190.73637)"
       d="m 242.21068,150.00002 c 0,9.75963 -7.91175,17.67138 -17.67139,17.67138 -9.75964,0 -17.67139,-7.91175 -17.67139,-17.67138 0,-9.75964 7.91175,-17.67139 17.67139,-17.67139 9.75964,0 17.67139,7.91175 17.67139,17.67139 z"
       sodipodi:ry="17.671389"
       sodipodi:rx="17.671389"
       sodipodi:cy="150.00002"
       sodipodi:cx="224.53929"
       id="path5300"
       style="fill:#00aeff;fill-opacity:1;stroke:none"
       sodipodi:type="arc" />
    <path
       id="path5388"
       title="-sin(x)"
       d="m 100.11167,446.36352 c 3.17693,-3.00978 6.35387,-6.01956 9.5308,-9.02329 3.17693,-3.00373 6.35386,-6.00137 9.53079,-8.98695 3.17694,-2.98558 6.35386,-5.95904 9.53079,-8.91442 3.17693,-2.95543 6.35386,-5.89268 9.53079,-8.80605 3.17693,-2.91332 6.35387,-5.80259 9.53079,-8.66212 3.17693,-2.85955 6.35386,-5.68915 9.53079,-8.48339 3.17694,-2.79423 6.35387,-5.55281 9.5308,-8.27047 3.17693,-2.71765 6.35386,-5.39411 9.53078,-8.02424 3.17692,-2.63016 6.35387,-5.21371 9.5308,-7.74574 3.17692,-2.53205 6.35386,-5.01227 9.53079,-7.43601 3.17693,-2.42374 6.35385,-4.79067 9.5308,-7.09636 3.17692,-2.30568 6.35385,-4.54977 9.53079,-6.72812 3.17692,-2.17835 6.35386,-4.29057 9.5308,-6.3328 3.17693,-2.04223 6.35385,-4.01407 9.53078,-5.91197 3.17693,-1.8979 6.35386,-3.72142 9.53078,-5.46735 3.17694,-1.74592 6.35388,-3.41377 9.5308,-5.00068 3.17692,-1.58693 6.35385,-3.0924 9.53078,-4.51392 3.17694,-1.42152 6.35388,-2.75857 9.53081,-4.00897 3.17693,-1.25039 6.35386,-2.41362 9.53078,-3.48785 3.17694,-1.07424 6.35387,-2.05896 9.5308,-2.95271 3.17694,-0.89375 6.35386,-1.69601 9.53079,-2.40569 3.17693,-0.70968 6.35387,-1.32621 9.5308,-1.84896 3.17693,-0.52274 6.35386,-0.95109 9.53079,-1.28479 3.17693,-0.33369 6.35387,-0.57214 9.5308,-0.71546 3.17693,-0.14331 6.35386,-0.19089 9.53078,-0.14324 3.17693,0.0476 6.35385,0.19115 9.5308,0.42958 3.17692,0.23842 6.35384,0.57238 9.53078,1.00063 3.17692,0.42823 6.35385,0.95132 9.53079,1.56766 3.17693,0.61632 6.35386,1.32646 9.53079,2.12839 3.17693,0.80194 6.35386,1.69623 9.5308,2.68054 3.17693,0.98432 6.35387,2.05919 9.53079,3.22191 3.17692,1.16273 6.35386,2.41383 9.53079,3.7503 3.17693,1.33646 6.35387,2.75877 9.53079,4.26358 3.17694,1.50481 6.35386,3.0926 9.53079,4.75971 3.17694,1.6671 6.35387,3.41397 9.5308,5.23665 3.17693,1.82268 6.35386,3.72161 9.53078,5.69252 3.17694,1.97093 6.35387,4.01425 9.53079,6.12547 3.17694,2.11122 6.35387,4.29072 9.53079,6.53375 3.17693,2.24303 6.35389,4.54993 9.53081,6.91573 3.17693,2.36577 6.35385,4.79081 9.53079,7.26984 3.17693,2.47902 6.35385,5.01239 9.5308,7.5947 3.17693,2.58229 6.35386,5.2138 9.53079,7.88895 3.17692,2.67515 6.35384,5.39423 9.53078,8.15147 3.17694,2.75726 6.35387,5.55292 9.53081,8.38114 3.17692,2.82825 6.35385,5.68925 9.53078,8.57709 3.17693,2.88784 6.35385,5.80267 9.53078,8.73848 3.17693,2.9358 6.35386,5.89273 9.53079,8.86468 3.17693,2.97197 6.35386,5.95906 9.5308,8.9552 3.17692,2.99615 6.35386,6.00138 9.53079,9.00967 3.17693,3.00825 6.35387,6.01956 9.5308,9.02781 3.17693,3.00829 6.35387,6.01351 9.53079,9.00967 3.17692,2.99617 6.35386,5.98319 9.53079,8.9552 3.17692,2.97198 6.35386,5.92883 9.53079,8.86468 3.17693,2.93586 6.35387,5.85059 9.53079,8.73848 3.17693,2.88789 6.35387,5.74878 9.53079,8.57709 3.17694,2.82828 6.35387,5.62381 9.5308,8.38114 3.17693,2.75731 6.35386,5.47622 9.53078,8.15147 3.17693,2.67525 6.35386,5.30657 9.5308,7.88896 3.17693,2.58241 6.35385,5.11555 9.53079,7.59468 3.17695,2.47915 6.35387,4.90395 9.53081,7.26985 3.17693,2.36592 6.35385,4.67258 9.53078,6.91574 3.17693,2.24315 6.35386,4.42239 9.5308,6.53374 3.17694,2.11136 6.35385,4.1544 9.53078,6.12546 3.17693,1.97107 6.35385,3.8697 9.53079,5.69254 3.17694,1.82282 6.35387,3.56938 9.5308,5.23664 3.17692,1.66726 6.35384,3.25474 9.53077,4.7597 3.17693,1.50499 6.35388,2.92696 9.53081,4.26359 3.17692,1.33664 6.35385,2.58739 9.53078,3.7503 3.17691,1.1629 6.35387,2.23741 9.5308,3.22191 3.17694,0.98449 6.35387,1.87841 9.5308,2.68055 3.17692,0.80211 6.35385,1.51187 9.5308,2.12837 3.17692,0.61652 6.35385,1.13925 9.53077,1.56768 3.17693,0.42844 6.35386,0.76201 9.53079,1.00063 3.17695,0.23862 6.35388,0.38171 9.5308,0.42957 3.17693,0.0479 6.35386,-1.2e-4 9.53078,-0.14324 3.17694,-0.14313 6.35389,-0.38196 9.53081,-0.71546 3.17693,-0.33351 6.35385,-0.76224 9.53077,-1.28479 3.17694,-0.52257 6.35387,-1.13947 9.53081,-1.84896 3.17693,-0.70949 6.35385,-1.51211 9.53079,-2.40567 3.17694,-0.89359 6.35387,-1.87867 9.5308,-2.95272 3.17694,-1.07406 6.35386,-2.23763 9.53079,-3.48787 3.17693,-1.25022 6.35386,-2.5876 9.53079,-4.00896 3.17693,-1.42134 6.35387,-2.92715 9.53078,-4.51391 3.17693,-1.58675 6.35386,-3.25493 9.53079,-5.0007 3.17693,-1.74576 6.35386,-3.56958 9.53081,-5.46734 3.17692,-1.89775 6.35384,-3.86987 9.53078,-5.91197 3.17692,-2.04208 6.35386,-4.15458 9.53079,-6.3328 3.17693,-2.17822 6.35386,-4.42256 9.5308,-6.72812 3.17692,-2.30557 6.35384,-4.67273 9.53086,-7.09636 3.1769,-2.42363 6.35379,-4.90407 9.53069,-7.43601 3.17698,-2.53193 6.35396,-5.11567 9.53085,-7.74574 3.1769,-2.63004 6.35379,-5.30667 9.53078,-8.02424 3.1769,-2.71757 6.35388,-5.47632 9.53077,-8.27047 3.17689,-2.79416 6.35379,-5.6239 9.53077,-8.4834 3.177,-2.85946 6.35402,-5.74884 9.53082,-8.66212 3.1768,-2.91331 6.3539,-5.85064 9.5308,-8.80604 3.177,-2.95535 6.3538,-5.92886 9.5308,-8.91441 3.1769,-2.98556 6.3538,-5.98324 9.531,-8.98696 3.1768,-3.00371 6.3537,-6.01351 9.5306,-9.02328"
       style="fill:none;stroke:none;stroke-width:0.77040476000000002;stroke-linecap:round;stroke-linejoin:round;stroke-miterlimit:4;stroke-opacity:1;stroke-dasharray:none;stroke-dashoffset:0"
       inkscape:connector-curvature="0" />
    <g
       transform="translate(0.0139756,-2.2753838)"
       style="font-size:40px;font-style:normal;font-weight:normal;line-height:125%;letter-spacing:0px;word-spacing:0px;fill:#ffffff;fill-opacity:1;stroke:none;font-family:Sans"
       id="text5406">
      <path
         d="m 187.52356,311.84286 6.01399,7.67427 -34.89232,27.34363 c -6.88975,5.39932 -7.58157,11.61203 -2.07546,18.63818 l 29.9898,38.269 c 5.50614,7.02624 11.7041,7.83973 18.5939,2.44047 l 20.05541,-15.71657 c 6.20758,-4.86461 6.87907,-10.40075 2.01446,-16.60843 l -14.59396,-18.62288 -21.18098,16.59863 -5.3725,-6.85568 28.44594,-22.29188 21.40983,27.32039 c 7.91169,10.09597 6.85371,19.07307 -3.17394,26.93131 l -23.0228,18.04199 c -11.11916,8.71362 -21.11573,7.40853 -29.98971,-3.91529 l -31.91427,-40.72476 c -8.87394,-11.32373 -7.75136,-21.34243 3.36775,-30.05613 l 36.32486,-28.46625"
         style="font-size:130px;letter-spacing:8px;fill:#ffffff"
         id="path3112" />
      <path
         d="m 269.74162,268.6726 4.07428,8.85792 -25.6289,11.78827 35.58209,77.35914 -8.97602,4.12861 -35.5821,-77.35914 -25.98322,11.95124 -4.07429,-8.85792 60.58816,-27.86812"
         style="font-size:130px;letter-spacing:8px;fill:#ffffff"
         id="path3114" />
      <path
         d="m 363.70666,259.56245 9.4727,88.93714 54.2363,-71.05891 10.13837,2.84506 -62.31405,81.07909 -10.38869,-2.91531 -11.78366,-101.87263 10.63903,2.98556"
         style="font-size:130px;letter-spacing:8px;fill:#ffffff"
         id="path3116" />
      <path
         d="m 505.73813,328.1102 c 9.86532,7.06339 11.24113,15.56301 4.12744,25.49888 l -8.24899,11.52142 c -3.32996,4.65085 -7.11099,7.32653 -11.3431,8.02705 -4.16181,0.75097 -8.6738,-0.61415 -13.53597,-4.09538 l -17.54638,-12.56268 12.33599,63.83258 -10.67581,-7.64356 -12.07893,-63.9683 4.46505,-6.23636 26.74238,19.14673 c 5.4259,3.88485 10.05609,3.14952 13.89057,-2.20601 l 7.26516,-10.14731 c 3.9352,-5.49642 3.18985,-10.18707 -2.23603,-14.07195 l -30.97042,-22.17389 -49.56962,69.23421 -8.03328,-5.75159 55.24553,-77.16179 40.16641,28.75795"
         style="font-size:130px;letter-spacing:8px;fill:#ffffff"
         id="path3118" />
    </g>
    <path
       transform="matrix(1.704181,0,0,1.704181,422.8273,190.73637)"
       d="m 242.21068,150.00002 c 0,9.75963 -7.91175,17.67138 -17.67139,17.67138 -9.75964,0 -17.67139,-7.91175 -17.67139,-17.67138 0,-9.75964 7.91175,-17.67139 17.67139,-17.67139 9.75964,0 17.67139,7.91175 17.67139,17.67139 z"
       sodipodi:ry="17.671389"
       sodipodi:rx="17.671389"
       sodipodi:cy="150.00002"
       sodipodi:cx="224.53929"
       id="path5300-6"
       style="fill:#00aeff;fill-opacity:1;stroke:none"
       sodipodi:type="arc" />
  </g>
</svg>
